<?xml version="1.0" encoding="utf-8"?>
<!-- Generator: Adobe Illustrator 27.0.0, SVG Export Plug-In . SVG Version: 6.00 Build 0)  -->
<svg version="1.1" id="Layer_1" xmlns="http://www.w3.org/2000/svg" xmlns:xlink="http://www.w3.org/1999/xlink" x="0px" y="0px"
	 viewBox="0 0 21.5 18.5" style="enable-background:new 0 0 21.5 18.5;" xml:space="preserve">
<style type="text/css">
	.st0{clip-path:url(#SVGID_00000003098518664057729440000017320018119333543576_);fill:#8B3FB5;}
	.st1{clip-path:url(#SVGID_00000001663105895259191200000018063750742951080338_);fill:#8B3FB5;}
</style>
<g>
	<g>
		<defs>
			<rect id="SVGID_1_" width="21.5" height="18.5"/>
		</defs>
		<clipPath id="SVGID_00000010310575237186283000000011904998904274861705_">
			<use xlink:href="#SVGID_1_"  style="overflow:visible;"/>
		</clipPath>
		<path style="clip-path:url(#SVGID_00000010310575237186283000000011904998904274861705_);fill:#8B3FB5;" d="M15.8,18.5h-10
			c-3.7,0-5.8-2.1-5.8-5.8v-7C0,2.1,2.1,0,5.8,0h10c3.6,0,5.8,2.1,5.8,5.8v7C21.5,16.4,19.4,18.5,15.8,18.5 M5.8,1.5
			c-2.9,0-4.2,1.4-4.2,4.2v7c0,2.9,1.4,4.2,4.2,4.2h10c2.9,0,4.2-1.4,4.2-4.2v-7c0-2.9-1.4-4.2-4.2-4.2H5.8z"/>
	</g>
	<g>
		<defs>
			<rect id="SVGID_00000152243841688027074930000010235838851820783539_" width="21.5" height="18.5"/>
		</defs>
		<clipPath id="SVGID_00000098191668031695171220000009131131177033025963_">
			<use xlink:href="#SVGID_00000152243841688027074930000010235838851820783539_"  style="overflow:visible;"/>
		</clipPath>
		<path style="clip-path:url(#SVGID_00000098191668031695171220000009131131177033025963_);fill:#8B3FB5;" d="M10.7,10.1
			c-0.8,0-1.7-0.3-2.3-0.8L5.3,6.8C5,6.6,4.9,6.1,5.2,5.8c0.3-0.3,0.7-0.4,1.1-0.1l3.1,2.5c0.8,0.6,2.1,0.6,2.8,0l3.1-2.5
			c0.3-0.3,0.8-0.2,1.1,0.1c0.3,0.3,0.2,0.8-0.1,1.1l-3.1,2.5C12.4,9.9,11.6,10.1,10.7,10.1"/>
	</g>
</g>
</svg>
