<?xml version="1.0" encoding="utf-8"?>
<!-- Generator: Adobe Illustrator 27.0.0, SVG Export Plug-In . SVG Version: 6.00 Build 0)  -->
<svg version="1.1" id="Layer_1" xmlns="http://www.w3.org/2000/svg" xmlns:xlink="http://www.w3.org/1999/xlink" x="0px" y="0px"
	 viewBox="0 0 21.5 21.5" style="enable-background:new 0 0 21.5 21.5;" xml:space="preserve">
<style type="text/css">
	.st0{clip-path:url(#SVGID_00000150090037681938280310000012082788160695911301_);fill:#7E489C;}
	.st1{clip-path:url(#SVGID_00000126317512764206180280000016694595993173977767_);fill:#7E489C;}
</style>
<g>
	<g>
		<defs>
			<rect id="SVGID_1_" width="21.5" height="21.5"/>
		</defs>
		<clipPath id="SVGID_00000034801115807493615350000010101832735343831460_">
			<use xlink:href="#SVGID_1_"  style="overflow:visible;"/>
		</clipPath>
		<path style="clip-path:url(#SVGID_00000034801115807493615350000010101832735343831460_);fill:#7E489C;" d="M10.6,12.3
			c0,0,0.1,0,0.2,0c0,0,0.1,0,0.1,0h0c2.2-0.1,3.9-1.8,3.9-4c0-2.2-1.8-4-4-4s-4,1.8-4,4C6.7,10.4,8.4,12.2,10.6,12.3 M10.8,5.7
			c1.4,0,2.5,1.1,2.5,2.5c0,1.4-1.1,2.4-2.4,2.5c-0.1,0-0.2,0-0.3,0c-1.3-0.1-2.4-1.2-2.4-2.5C8.2,6.9,9.4,5.7,10.8,5.7"/>
	</g>
	<g>
		<defs>
			<rect id="SVGID_00000001656718320553027940000000134665110549971586_" width="21.5" height="21.5"/>
		</defs>
		<clipPath id="SVGID_00000139277043308851350260000015492978373164275352_">
			<use xlink:href="#SVGID_00000001656718320553027940000000134665110549971586_"  style="overflow:visible;"/>
		</clipPath>
		<path style="clip-path:url(#SVGID_00000139277043308851350260000015492978373164275352_);fill:#7E489C;" d="M21.5,10.8
			C21.5,4.8,16.7,0,10.8,0S0,4.8,0,10.8c0,3.1,1.3,5.9,3.5,7.9c0,0,0,0,0,0c0.1,0.1,0.1,0.1,0.2,0.2C3.8,19,4,19.1,4.1,19.2
			c0.2,0.1,0.3,0.2,0.4,0.3c0.1,0.1,0.2,0.2,0.4,0.2c0.2,0.1,0.3,0.2,0.5,0.3c0.1,0.1,0.2,0.1,0.4,0.2c0.2,0.1,0.4,0.2,0.6,0.3
			c0.1,0.1,0.2,0.1,0.4,0.2c0.2,0.1,0.4,0.1,0.6,0.2C7.4,21,7.6,21,7.7,21c0.2,0.1,0.4,0.1,0.6,0.2c0.1,0,0.2,0.1,0.4,0.1
			c0.2,0,0.5,0.1,0.7,0.1c0.1,0,0.2,0,0.3,0c0.4,0,0.7,0.1,1.1,0.1c0.4,0,0.7,0,1.1-0.1c0.1,0,0.2,0,0.3,0c0.2,0,0.5-0.1,0.7-0.1
			c0.1,0,0.2-0.1,0.4-0.1c0.2,0,0.4-0.1,0.6-0.2c0.1,0,0.3-0.1,0.4-0.1c0.2-0.1,0.4-0.1,0.6-0.2c0.1,0,0.2-0.1,0.4-0.2
			c0.2-0.1,0.4-0.2,0.6-0.3c0.1-0.1,0.2-0.1,0.4-0.2c0.2-0.1,0.3-0.2,0.5-0.3c0.1-0.1,0.2-0.2,0.4-0.2c0.1-0.1,0.3-0.2,0.5-0.3
			c0.1-0.1,0.2-0.2,0.4-0.3c0.1-0.1,0.1-0.1,0.2-0.2c0,0,0,0,0,0C20.2,16.7,21.5,13.9,21.5,10.8 M1.5,10.8c0-5.1,4.2-9.2,9.2-9.2
			S20,5.7,20,10.8c0,2.3-0.8,4.4-2.2,6c-0.4-0.7-0.9-1.3-1.7-1.8c-3-2-7.8-2-10.8,0C4.6,15.4,4,16,3.7,16.7
			C2.3,15.1,1.5,13,1.5,10.8 M16.6,17.9c-0.1,0-0.1,0.1-0.2,0.1c-0.2,0.1-0.3,0.3-0.5,0.4c-0.1,0-0.2,0.1-0.2,0.1
			c-0.2,0.1-0.3,0.2-0.5,0.3c-0.1,0-0.2,0.1-0.3,0.1c-0.2,0.1-0.3,0.2-0.5,0.2c-0.1,0-0.2,0.1-0.3,0.1c-0.2,0.1-0.3,0.1-0.5,0.2
			c-0.1,0-0.2,0.1-0.3,0.1c-0.2,0-0.4,0.1-0.5,0.1c-0.1,0-0.2,0-0.3,0.1c-0.2,0-0.4,0.1-0.6,0.1c-0.1,0-0.2,0-0.2,0
			c-0.3,0-0.6,0.1-0.9,0.1s-0.6,0-0.9,0c-0.1,0-0.2,0-0.2,0c-0.2,0-0.4,0-0.6-0.1c-0.1,0-0.2,0-0.3-0.1c-0.2,0-0.4-0.1-0.5-0.1
			c-0.1,0-0.2-0.1-0.3-0.1c-0.2-0.1-0.3-0.1-0.5-0.2c-0.1,0-0.2-0.1-0.3-0.1C6.8,19.1,6.7,19,6.5,19c-0.1,0-0.2-0.1-0.3-0.1
			c-0.2-0.1-0.3-0.2-0.5-0.3c-0.1,0-0.2-0.1-0.2-0.1C5.3,18.3,5.2,18.1,5,18c-0.1,0-0.1-0.1-0.2-0.1c0,0,0,0,0,0
			c0.2-0.6,0.7-1.2,1.4-1.7c2.5-1.6,6.7-1.6,9.1,0C16,16.7,16.5,17.2,16.6,17.9C16.7,17.9,16.7,17.9,16.6,17.9"/>
	</g>
</g>
</svg>
