<?xml version="1.0" encoding="utf-8"?>
<!-- Generator: Adobe Illustrator 27.0.0, SVG Export Plug-In . SVG Version: 6.00 Build 0)  -->
<svg version="1.1" id="Layer_1" xmlns="http://www.w3.org/2000/svg" xmlns:xlink="http://www.w3.org/1999/xlink" x="0px" y="0px"
	 viewBox="0 0 21.5 21.5" style="enable-background:new 0 0 21.5 21.5;" xml:space="preserve">
<style type="text/css">
	.st0{clip-path:url(#SVGID_00000124120297796035091360000009019548586579684779_);fill:#7E489C;}
</style>
<g>
	<g>
		<defs>
			<rect id="SVGID_1_" width="21.5" height="21.5"/>
		</defs>
		<clipPath id="SVGID_00000029734160006834560260000012610578953150302084_">
			<use xlink:href="#SVGID_1_"  style="overflow:visible;"/>
		</clipPath>
		<path style="clip-path:url(#SVGID_00000029734160006834560260000012610578953150302084_);fill:#7E489C;" d="M16.2,21.5
			c-1.1,0-2.3-0.3-3.6-0.8c-1.2-0.5-2.4-1.2-3.6-2.1c-1.2-0.9-2.3-1.8-3.4-2.9c-1.1-1.1-2-2.2-2.9-3.4C2,11.2,1.3,10,0.8,8.9
			C0.3,7.6,0,6.4,0,5.3c0-0.8,0.1-1.5,0.4-2.2c0.3-0.7,0.7-1.4,1.3-1.9C2.5,0.4,3.4,0,4.3,0c0.4,0,0.8,0.1,1.1,0.2
			c0.4,0.2,0.7,0.4,1,0.8l2.3,3.3C9,4.6,9.1,4.9,9.2,5.2c0.1,0.3,0.2,0.6,0.2,0.9c0,0.4-0.1,0.8-0.3,1.1C9,7.4,8.7,7.7,8.4,8
			L7.8,8.7c0,0,0,0.1,0,0.1C7.9,9,8.1,9.4,8.6,9.9c0.4,0.5,0.9,1,1.4,1.5c0.6,0.6,1.1,1,1.5,1.4c0.6,0.5,0.9,0.7,1.1,0.8l0,0.1
			l0.7-0.7c0.3-0.3,0.6-0.5,0.9-0.7c0.6-0.3,1.2-0.4,1.9-0.1c0.3,0.1,0.5,0.3,0.8,0.5l3.3,2.4c0.4,0.2,0.6,0.6,0.8,1
			c0.1,0.4,0.2,0.7,0.2,1.1c0,0.5-0.1,1-0.3,1.4s-0.5,0.8-0.8,1.2c-0.6,0.6-1.2,1.1-1.9,1.4C17.7,21.4,17,21.5,16.2,21.5 M4.3,1.5
			c-0.5,0-1.1,0.2-1.5,0.7C2.3,2.7,2,3.1,1.8,3.6C1.6,4.2,1.5,4.7,1.5,5.3c0,0.9,0.2,1.9,0.7,3c0.5,1.1,1.1,2.1,1.9,3.3
			c0.8,1.1,1.7,2.2,2.7,3.2c1,1,2.1,1.9,3.2,2.7c1.1,0.8,2.2,1.4,3.3,1.9c1.7,0.7,3.3,0.9,4.6,0.4c0.5-0.2,1-0.5,1.4-1
			c0.2-0.2,0.4-0.5,0.6-0.8c0.1-0.2,0.2-0.5,0.2-0.8c0-0.2,0-0.3-0.1-0.5c0,0-0.1-0.2-0.3-0.3l-3.3-2.4c-0.2-0.1-0.4-0.2-0.6-0.3
			c-0.3-0.1-0.4-0.1-0.6,0c-0.2,0.1-0.4,0.2-0.6,0.4l-0.8,0.8c-0.4,0.4-1,0.5-1.4,0.3L12,15c-0.4-0.2-0.9-0.6-1.4-1
			c-0.5-0.4-1-0.9-1.6-1.5c-0.5-0.5-1-1-1.5-1.6c-0.5-0.6-0.8-1-1-1.4L6.3,9.2C6.3,8.9,6.2,8.8,6.2,8.7c0-0.4,0.1-0.7,0.4-0.9L7.4,7
			c0.2-0.2,0.3-0.4,0.4-0.6c0.1-0.1,0.1-0.2,0.1-0.3c0,0,0-0.2-0.1-0.3C7.8,5.6,7.7,5.4,7.5,5.2L5.2,1.9C5.1,1.8,5,1.7,4.8,1.6
			C4.7,1.5,4.5,1.5,4.3,1.5 M12.7,13.8l-0.1,0.7l0.3-0.7C12.8,13.7,12.7,13.7,12.7,13.8 M12.7,13.8L12.7,13.8L12.7,13.8z"/>
	</g>
</g>
</svg>
